<svg width="360" height="136" viewBox="0 0 360 136" fill="none" xmlns="http://www.w3.org/2000/svg">
<rect x="179.657" y="31.0338" width="69.8057" height="69.8057" transform="rotate(-45 179.657 31.0338)" stroke="#F7EEE3" stroke-width="8"/>
<path d="M81.6569 31.0338L131.017 -18.3262L180.377 31.0338L131.017 80.3939L81.6569 31.0338Z" stroke="#F7EEE3" stroke-width="8"/>
<rect x="32.6569" y="80.0169" width="69.8057" height="69.8057" transform="rotate(-45 32.6569 80.0169)" stroke="#F7EEE3" stroke-width="8"/>
<rect x="-66.3431" y="79.0338" width="69.8057" height="69.8057" transform="rotate(-45 -66.3431 79.0338)" stroke="#F7EEE3" stroke-width="8"/>
<rect x="130.657" y="80.0338" width="69.8057" height="69.8057" transform="rotate(-45 130.657 80.0338)" stroke="#F7EEE3" stroke-width="8"/>
<rect x="228.657" y="80.0338" width="69.8057" height="69.8057" transform="rotate(-45 228.657 80.0338)" stroke="#F7EEE3" stroke-width="8"/>
<rect x="326.657" y="79.0338" width="69.8057" height="69.8057" transform="rotate(-45 326.657 79.0338)" stroke="#F7EEE3" stroke-width="8"/>
<rect x="-16.3431" y="31.0169" width="69.8057" height="69.8057" transform="rotate(-45 -16.3431 31.0169)" stroke="#F7EEE3" stroke-width="8"/>
<rect x="277.657" y="31.0338" width="69.8057" height="69.8057" transform="rotate(-45 277.657 31.0338)" stroke="#F7EEE3" stroke-width="8"/>
<path d="M131.5 79.0169L82 128.517L34.5 79.0169H131.5Z" fill="#F7EEE3"/>
<path d="M330.5 79.0169L281 128.517L233.5 79.0169H330.5Z" fill="#F7EEE3"/>
<path d="M279.5 30.5169L230 -18.9831L182.5 30.5169H279.5Z" fill="#F7EEE3"/>
<path d="M79.5 30.5169L30 -18.9831L-17.5 30.5169H79.5Z" fill="#F7EEE3"/>
</svg>
